<?xml version="1.0" encoding="utf-8"?>
<svg version="1.0" width="960.000000pt" height="520.000000pt" viewBox="0 0 960.000000 520.000000" preserveAspectRatio="xMidYMid meet" xmlns="http://www.w3.org/2000/svg">
  <g transform="translate(0.000000,520.000000) scale(0.100000,-0.100000)" fill="#000000" stroke="none">
    <path d="M5840 4775 c0 -318 2 -365 15 -365 13 0 15 47 15 365 0 318 -2 365 -15 365 -13 0 -15 -47 -15 -365z" style="fill: rgb(122, 31, 38);"/>
    <path d="M3260 4797 c42 -58 76 -162 99 -299 42 -245 46 -360 46 -1333 0 -971 -4 -1089 -45 -1330 -25 -145 -53 -232 -94 -294 l-35 -51 341 0 341 0 -21 23 c-48 51 -88 170 -116 344 -37 227 -39 286 -43 1641 l-4 1342 -250 0 -250 0 31 -43z" style="fill: rgb(122, 31, 38);"/>
    <path d="M170 4816 c0 -2 33 -19 73 -39 86 -41 157 -101 195 -165 l27 -47 5 -375 5 -375 28 -80 c79 -225 259 -387 496 -448 l51 -13 -77 -32 c-203 -83 -357 -238 -434 -437 -59 -153 -61 -173 -68 -635 l-6 -425 -27 -46 c-37 -64 -115 -131 -200 -174 l-71 -35 529 1 529 0 -65 23 c-167 59 -262 124 -304 207 l-26 53 0 380 c0 521 12 617 98 796 57 121 150 219 257 271 l70 34 265 0 c264 -1 265 -1 350 -29 163 -54 315 -142 440 -252 35 -32 49 -40 39 -24 -8 14 -96 173 -194 353 l-179 328 -11 -49 c-44 -191 -216 -271 -585 -272 -273 0 -389 60 -475 243 -64 137 -67 168 -72 715 l-5 492 330 0 c366 0 436 -7 588 -61 218 -77 420 -205 619 -390 64 -60 67 -62 61 -34 -3 17 -22 134 -41 260 -19 127 -38 242 -41 258 l-6 27 -1084 0 c-596 0 -1084 -2 -1084 -4z" style="fill: rgb(122, 31, 38);"/>
    <path d="M6561 4468 c-10 -24 -92 -200 -181 -393 -89 -192 -162 -354 -163 -359 -1 -6 5 -11 13 -13 11 -3 63 101 195 387 99 215 181 397 183 405 2 8 -4 15 -13 15 -9 0 -23 -18 -34 -42z" style="fill: rgb(122, 31, 38);"/>
    <path d="M7258 4253 c-200 -191 -255 -249 -247 -259 9 -11 69 42 275 238 145 138 261 255 258 259 -3 5 -11 9 -17 8 -7 0 -128 -111 -269 -246z" style="fill: rgb(122, 31, 38);"/>
    <path d="M5075 4429 c-5 -7 342 -785 361 -807 1 -2 9 0 17 5 11 6 -23 88 -171 411 -102 221 -189 402 -193 402 -4 0 -11 -5 -14 -11z" style="fill: rgb(122, 31, 38);"/>
    <path d="M4175 4410 c-7 -12 490 -530 510 -530 6 0 15 3 18 7 6 5 -494 522 -515 531 -3 2 -9 -2 -13 -8z" style="fill: rgb(122, 31, 38);"/>
    <path d="M5843 4313 c-7 -3 -13 -13 -13 -23 0 -19 17 -30 38 -23 6 3 12 10 12 18 0 17 -22 33 -37 28z" style="fill: rgb(122, 31, 38);"/>
    <path d="M5847 4164 c-9 -9 -9 -131 0 -296 5 -98 9 -128 20 -128 11 0 13 38 11 212 -3 199 -8 235 -31 212z" style="fill: rgb(122, 31, 38);"/>
    <path d="M9060 4054 c-58 -11 -159 -48 -221 -80 -181 -95 -318 -261 -416 -503 l-43 -106 0 298 0 297 -252 0 -251 0 21 -23 c109 -116 162 -507 162 -1207 0 -486 -25 -817 -74 -1012 -26 -101 -43 -143 -83 -196 l-24 -32 342 0 342 0 -21 23 c-49 52 -90 165 -116 322 -33 198 -41 340 -41 780 0 380 2 453 18 535 26 142 63 254 120 365 42 82 66 115 137 185 133 134 269 190 460 190 110 -1 171 -16 272 -68 11 -5 131 179 121 188 -27 26 -126 43 -273 45 -85 2 -166 1 -180 -1z" style="fill: rgb(122, 31, 38);"/>
    <path d="M6904 3905 c-4 -9 -2 -21 4 -27 15 -15 44 -1 40 19 -4 23 -36 29 -44 8z" style="fill: rgb(122, 31, 38);"/>
    <path d="M4781 3817 c-16 -16 -14 -34 5 -41 21 -8 34 1 34 24 0 22 -23 33 -39 17z" style="fill: rgb(122, 31, 38);"/>
    <path d="M6680 3675 c-97 -97 -141 -148 -134 -155 7 -7 58 37 158 133 125 119 147 144 134 154 -12 10 -39 -13 -158 -132z" style="fill: rgb(122, 31, 38);"/>
    <path d="M4876 3713 c-4 -4 60 -73 141 -155 117 -117 150 -145 161 -136 11 9 -15 40 -130 155 -136 137 -156 152 -172 136z" style="fill: rgb(122, 31, 38);"/>
    <path d="M5754 3565 c-428 -77 -726 -373 -799 -794 -20 -112 -20 -374 0 -478 74 -390 327 -663 712 -770 87 -25 114 -28 248 -27 128 1 164 5 246 26 361 97 624 361 718 722 144 550 -133 1106 -635 1277 -167 57 -337 72 -490 44z m356 -365 c283 -68 541 -297 656 -583 l33 -80 -25 -66 c-69 -184 -215 -367 -377 -474 -300 -199 -670 -197 -968 3 -82 56 -203 177 -259 259 -64 96 -124 229 -124 276 0 47 60 180 124 276 129 191 354 347 565 392 105 23 272 21 375 -3z" style="fill: rgb(122, 31, 38);"/>
    <path d="M5803 3108 c-215 -230 -265 -527 -138 -829 35 -83 116 -207 166 -255 l31 -29 -30 60 c-138 276 -161 600 -63 888 16 48 45 117 64 152 19 36 31 65 27 65 -4 0 -29 -24 -57 -52z" style="fill: rgb(122, 31, 38);"/>
    <path d="M5941 3069 c145 -335 138 -706 -20 -1029 l-31 -65 72 75 c275 286 291 696 39 1013 -91 115 -107 117 -60 6z" style="fill: rgb(122, 31, 38);"/>
    <path d="M5831 3049 c-144 -302 -141 -680 8 -968 l28 -54 6 548 c4 302 5 550 2 553 -2 3 -22 -33 -44 -79z" style="fill: rgb(122, 31, 38);"/>
    <path d="M5892 2575 l-1 -560 28 60 c142 308 145 697 7 988 l-34 72 0 -560z" style="fill: rgb(122, 31, 38);"/>
    <path d="M7210 3414 c-206 -84 -379 -155 -384 -157 -5 -2 -7 -10 -4 -19 5 -13 75 12 401 144 289 118 394 164 390 174 -3 8 -10 14 -17 13 -6 0 -180 -70 -386 -155z" style="fill: rgb(122, 31, 38);"/>
    <path d="M4114 3525 c-4 -9 -5 -17 -3 -19 2 -2 179 -74 393 -160 300 -122 391 -155 397 -144 5 7 3 15 -4 19 -7 4 -181 75 -387 159 -206 84 -378 154 -383 157 -4 2 -10 -3 -13 -12z" style="fill: rgb(122, 31, 38);"/>
    <path d="M4705 2661 c-62 -26 -79 -112 -31 -159 58 -59 156 -19 156 64 0 46 -14 70 -50 89 -32 17 -45 18 -75 6z" style="fill: rgb(122, 31, 38);"/>
    <path d="M7020 2657 c-14 -7 -33 -29 -43 -49 -16 -32 -16 -40 -4 -70 19 -46 43 -63 89 -63 51 0 88 39 88 91 0 46 -14 70 -50 89 -35 18 -47 18 -80 2z" style="fill: rgb(122, 31, 38);"/>
    <path d="M4050 2585 c-11 -13 -11 -19 3 -33 20 -19 41 -5 35 24 -4 24 -22 28 -38 9z" style="fill: rgb(122, 31, 38);"/>
    <path d="M7703 2593 c-18 -6 -16 -40 1 -46 8 -3 20 1 27 9 10 12 9 18 -2 28 -8 8 -20 12 -26 9z" style="fill: rgb(122, 31, 38);"/>
    <path d="M4190 2570 c0 -20 4 -20 203 -18 172 3 202 5 202 18 0 13 -30 15 -202 18 -199 2 -203 2 -203 -18z" style="fill: rgb(122, 31, 38);"/>
    <path d="M7190 2570 c0 -19 7 -20 200 -20 193 0 200 1 200 20 0 19 -7 20 -200 20 -193 0 -200 -1 -200 -20z" style="fill: rgb(122, 31, 38);"/>
    <path d="M3667 1078 c-8 -18 -30 -57 -47 -85 -30 -53 -30 -53 -8 -53 22 1 31 11 122 133 l28 37 -39 0 c-34 0 -41 -4 -56 -32z" style="fill: rgb(122, 31, 38);"/>
    <path d="M4470 879 c-78 -24 -120 -80 -120 -164 0 -89 29 -124 188 -223 80 -50 102 -82 102 -146 0 -97 -45 -149 -129 -150 -56 -1 -94 21 -123 70 -18 30 -22 32 -41 23 -12 -7 -23 -13 -25 -14 -8 -7 31 -65 62 -93 76 -66 187 -63 257 7 76 75 79 222 6 299 -12 13 -61 48 -109 78 -104 66 -133 105 -125 166 13 96 118 127 194 56 19 -18 24 -19 42 -6 l21 15 -21 27 c-39 50 -115 73 -179 55z" style="fill: rgb(122, 31, 38);"/>
    <path d="M8342 527 c-78 -199 -142 -366 -142 -370 0 -5 12 -7 27 -5 26 3 32 13 73 123 l45 120 136 3 136 3 44 -123 c43 -120 45 -123 74 -123 21 0 29 4 27 15 -6 24 -264 704 -271 712 -3 4 -70 -156 -149 -355z m198 84 c27 -73 50 -139 50 -147 0 -11 -23 -14 -110 -14 -60 0 -110 3 -110 8 0 4 21 61 46 127 25 66 50 131 55 144 5 13 12 22 14 19 2 -2 27 -64 55 -137z" style="fill: rgb(122, 31, 38);"/>
    <path d="M1570 858 c-38 -15 -74 -40 -116 -82 -81 -81 -108 -147 -108 -266 0 -110 27 -179 96 -256 147 -160 369 -160 516 0 69 77 96 146 96 256 0 119 -27 185 -108 266 -44 44 -77 67 -119 82 -77 29 -181 29 -257 0z m252 -62 c52 -25 104 -78 136 -139 24 -46 27 -63 27 -147 0 -80 -4 -103 -24 -144 -75 -153 -244 -214 -387 -140 -224 114 -217 463 11 571 42 20 62 23 125 21 46 -2 89 -11 112 -22z" style="fill: rgb(122, 31, 38);"/>
    <path d="M7287 856 c-98 -41 -146 -87 -188 -181 -84 -191 -6 -430 166 -506 104 -46 203 -44 311 5 51 23 54 27 54 61 0 20 -3 35 -7 33 -136 -67 -138 -68 -208 -68 -119 0 -208 57 -257 165 -31 70 -32 218 -2 286 50 109 140 169 255 169 76 0 117 -12 177 -51 l42 -28 0 34 c0 26 -7 38 -31 56 -76 54 -214 65 -312 25z" style="fill: rgb(122, 31, 38);"/>
    <path d="M200 510 l0 -360 30 0 30 0 0 185 0 185 180 0 180 0 2 -182 3 -183 30 0 30 0 0 355 0 355 -30 0 -30 0 -3 -142 -3 -143 -179 0 -180 0 0 145 0 145 -30 0 -30 0 0 -360z" style="fill: rgb(122, 31, 38);"/>
    <path d="M2712 513 l3 -358 143 -3 142 -3 0 36 0 35 -115 0 -115 0 0 325 0 325 -30 0 -30 0 2 -357z" style="fill: rgb(122, 31, 38);"/>
    <path d="M3620 510 l0 -360 30 0 30 0 0 360 0 360 -30 0 -30 0 0 -360z" style="fill: rgb(122, 31, 38);"/>
    <path d="M5297 863 c-4 -3 -7 -17 -7 -30 0 -22 2 -23 95 -23 l95 0 0 -331 0 -330 28 3 27 3 3 328 2 327 90 0 90 0 0 30 0 30 -208 0 c-115 0 -212 -3 -215 -7z" style="fill: rgb(122, 31, 38);"/>
    <path d="M6345 858 c-3 -7 -4 -168 -3 -358 l3 -345 30 0 30 0 0 355 0 355 -28 3 c-16 2 -29 -2 -32 -10z" style="fill: rgb(122, 31, 38);"/>
  </g>
</svg>