<svg xmlns="http://www.w3.org/2000/svg" xmlns:xlink="http://www.w3.org/1999/xlink" width="1600" zoomAndPan="magnify" viewBox="0 0 1200 112.499997" height="150" preserveAspectRatio="xMidYMid meet" version="1.0"><defs><clipPath id="3e4d4cf824"><path d="M 2.65625 67 L 1197.34375 67 L 1197.34375 112.003906 L 2.65625 112.003906 Z M 2.65625 67 " clip-rule="nonzero"/></clipPath><clipPath id="8a2b2e7c65"><path d="M 1410.578125 337.078125 L -309.515625 181.953125 L -285.503906 -84.277344 L 1434.589844 70.847656 Z M 1410.578125 337.078125 " clip-rule="nonzero"/></clipPath><clipPath id="00cf3ff6c8"><path d="M 1582.894531 614.03125 L -354.347656 439.320312 L -306.933594 -86.449219 L 1630.308594 88.257812 Z M 1582.894531 614.03125 " clip-rule="nonzero"/></clipPath><clipPath id="54f6161e4d"><path d="M 642 64 L 1197.34375 64 L 1197.34375 112.003906 L 642 112.003906 Z M 642 64 " clip-rule="nonzero"/></clipPath><clipPath id="7bdedd56e3"><path d="M 1410.578125 337.078125 L -309.515625 181.953125 L -285.503906 -84.277344 L 1434.589844 70.847656 Z M 1410.578125 337.078125 " clip-rule="nonzero"/></clipPath><clipPath id="25fdd30f98"><path d="M 1582.894531 614.03125 L -354.347656 439.320312 L -306.933594 -86.449219 L 1630.308594 88.257812 Z M 1582.894531 614.03125 " clip-rule="nonzero"/></clipPath><clipPath id="22e504b4d7"><path d="M 2.65625 60 L 658 60 L 658 107 L 2.65625 107 Z M 2.65625 60 " clip-rule="nonzero"/></clipPath><clipPath id="edd07c106c"><path d="M 1410.578125 337.078125 L -309.515625 181.953125 L -285.503906 -84.277344 L 1434.589844 70.847656 Z M 1410.578125 337.078125 " clip-rule="nonzero"/></clipPath><clipPath id="b6a2b40523"><path d="M 1582.894531 614.03125 L -354.347656 439.320312 L -306.933594 -86.449219 L 1630.308594 88.257812 Z M 1582.894531 614.03125 " clip-rule="nonzero"/></clipPath></defs><g clip-path="url(#3e4d4cf824)"><g clip-path="url(#8a2b2e7c65)"><g clip-path="url(#00cf3ff6c8)"><path fill="#7a1f26" d="M -315.597656 85.792969 L -308.042969 86.632812 C -277.203125 89.503906 -247.195312 83.410156 -220.917969 71.230469 C -208.566406 74.800781 -195.605469 77.328125 -182.195312 78.570312 C -154.777344 81.113281 -127.996094 76.597656 -103.941406 67.015625 L 194.007812 91.953125 L 444.648438 83.664062 L 626.371094 87.65625 L 832.726562 76.410156 L 1025.757812 104.140625 L 1160.433594 83.945312 L 1308.199219 110.082031 L 1583.914062 99.34375 L 1617.300781 136.390625 L 1581.359375 538.484375 L -346.53125 432.355469 Z M -315.597656 85.792969 " fill-opacity="1" fill-rule="nonzero"/></g></g></g><g clip-path="url(#54f6161e4d)"><g clip-path="url(#7bdedd56e3)"><g clip-path="url(#25fdd30f98)"><path fill="#ffffff" d="M 646.171875 96.035156 L 646.253906 94.945312 L 646.679688 94.429688 C 649.097656 94.542969 651.148438 94.640625 653.109375 95.140625 L 657.34375 96.152344 C 661.488281 97.050781 665 96.871094 669.179688 96.386719 C 672.710938 95.988281 676.742188 96.671875 680.335938 96.851562 C 685.476562 97.09375 689.722656 98.5 694.691406 99.636719 C 696.496094 100.046875 699.425781 100.5 701.511719 100.367188 C 704.484375 100.167969 707.335938 98.875 710.296875 98.441406 C 713.363281 98 715.945312 97.109375 719.285156 97.042969 L 734.253906 95.921875 C 737.34375 95.542969 740.5625 95.527344 743.59375 94.96875 L 749.59375 93.929688 C 752.070312 93.726562 754.894531 93.996094 756.59375 92.351562 L 757.414062 91.039062 C 760.828125 88.539062 765.507812 89.632812 768.726562 89.792969 C 770.820312 89.894531 773.058594 89.730469 775.0625 90.203125 C 777.253906 90.722656 779.3125 93 781.582031 92.984375 C 783.90625 92.972656 785.851562 91.175781 788.148438 90.855469 L 791.964844 90.996094 C 795.027344 91.738281 797.257812 92.46875 800.378906 91.390625 C 805.34375 89.6875 809.867188 89.128906 815.117188 88.464844 L 820.203125 87.679688 C 823.703125 86.824219 827.144531 85.789062 830.84375 85.613281 C 834.632812 85.429688 838.101562 85.566406 841.808594 84.65625 C 847.609375 83.234375 853.113281 83.324219 859.09375 83.628906 L 865.976562 83.984375 C 867.507812 83.890625 868.882812 83.386719 870.453125 83.320312 C 873.226562 83.207031 876.535156 83.621094 879.007812 84.589844 L 886.792969 88.230469 C 890.347656 89.53125 893.949219 91.742188 897.910156 92.054688 C 901.917969 92.375 904.410156 91.96875 908.058594 91.261719 C 912.28125 90.441406 916.117188 91.710938 920.257812 92.289062 C 922.078125 92.539062 922.542969 92.273438 923.898438 93.625 C 925.707031 95.441406 924.367188 95.203125 928.132812 96.082031 C 931.871094 96.945312 935.320312 98.585938 939.226562 98.882812 L 951.503906 100.222656 C 954.085938 100.46875 956.757812 101.136719 959.324219 101.527344 L 966.867188 103.507812 C 968.867188 103.835938 971.21875 103.566406 973.25 103.734375 L 976.640625 104.550781 C 980.527344 105.574219 986.738281 105.578125 990.742188 105.457031 C 994.421875 105.351562 999.875 103.0625 1003.476562 104.457031 L 1004.574219 105.738281 C 1006.441406 107.09375 1007.164062 107.011719 1008.5625 107.109375 C 1012.585938 107.382812 1016.382812 106.613281 1020.394531 106.859375 C 1024.292969 107.109375 1023.019531 105.664062 1025.917969 104.316406 C 1028.128906 103.300781 1032.523438 104.195312 1035.058594 104.308594 L 1038.722656 104.519531 C 1039.578125 104.410156 1040.046875 103.953125 1040.785156 103.84375 C 1043.554688 103.4375 1046.621094 105.613281 1049.007812 105.082031 C 1050.484375 104.75 1053.085938 100.246094 1052.976562 98.863281 C 1059.265625 103.507812 1069.828125 105.878906 1078.078125 105.527344 C 1083.550781 105.304688 1081.175781 104.082031 1084.261719 103.410156 C 1089.214844 102.304688 1094.179688 105.941406 1098.828125 106.621094 C 1104.382812 107.429688 1109.769531 106.394531 1114.246094 103.757812 C 1116.019531 102.71875 1117.191406 100.765625 1118.925781 99.851562 C 1120.386719 99.078125 1122.71875 99.625 1124.523438 99.714844 C 1126.402344 99.8125 1129.886719 100.5625 1131.652344 100.09375 C 1132.894531 99.769531 1133.351562 98.917969 1134.429688 98.34375 L 1138.648438 96.925781 C 1140.839844 96.289062 1143.039062 97.070312 1145.085938 96.582031 C 1149.042969 95.640625 1146.941406 92.6875 1148.25 90.496094 C 1149.800781 87.898438 1155.476562 85.253906 1158.988281 85.890625 C 1161.261719 86.300781 1163.613281 88.429688 1164.601562 90.113281 C 1165.246094 91.207031 1164.9375 92.363281 1166.441406 92.878906 C 1168.554688 93.597656 1172.027344 92.871094 1174.324219 93.183594 C 1176.996094 93.539062 1178.710938 96.253906 1180.078125 98.132812 C 1181.625 100.273438 1180.804688 101.71875 1184.382812 101.792969 C 1187.578125 101.847656 1188.335938 102.675781 1190.777344 104.15625 C 1192.789062 105.375 1194.507812 105.574219 1196.886719 105.640625 C 1203.183594 105.84375 1209.972656 105.785156 1216.179688 106.679688 C 1222.863281 107.632812 1229.144531 109.777344 1235.316406 112.015625 L 1246.023438 116.039062 C 1253.050781 119.023438 1260.433594 119.339844 1268.226562 119.664062 C 1274.664062 119.921875 1280.886719 120.308594 1287.339844 119.792969 C 1292.035156 119.414062 1296.890625 118.285156 1301.640625 118.789062 L 1315.464844 121.128906 C 1320.375 122.113281 1325.820312 123.832031 1329.839844 120.585938 C 1333.042969 118.007812 1336.054688 117.167969 1340.488281 116.324219 C 1345.785156 115.328125 1351.40625 114.09375 1356.855469 114.148438 C 1365.867188 114.242188 1374.695312 115.726562 1383.617188 116.328125 L 1398.863281 117.027344 C 1405.75 117.355469 1413.632812 116.972656 1420.15625 119.066406 C 1422.1875 119.71875 1421.914062 119.824219 1424.027344 119.09375 C 1427.074219 118.050781 1430.578125 118.265625 1433.503906 117.113281 C 1436.476562 115.933594 1439.074219 113.898438 1441.847656 112.644531 C 1445.492188 110.984375 1449.582031 112.144531 1453.042969 110.570312 C 1456.230469 109.117188 1458.515625 108.082031 1462.476562 108.757812 C 1465.355469 109.253906 1468.835938 110.5625 1471.457031 111.628906 C 1473.175781 112.339844 1473.539062 112.679688 1475.535156 112.453125 L 1484.503906 111.390625 C 1486.863281 111.339844 1489.617188 111.601562 1491.867188 111.964844 C 1494.332031 112.347656 1497.695312 112.359375 1499.992188 113.152344 C 1501.011719 113.507812 1501.621094 114.671875 1502.660156 114.824219 C 1504.019531 115.019531 1505.667969 113.765625 1506.746094 113.308594 C 1508.84375 112.429688 1509.511719 112.972656 1511.691406 112.789062 C 1513.191406 112.660156 1514.296875 111.765625 1515.710938 111.484375 C 1518.199219 110.992188 1521.433594 111.605469 1523.980469 111.71875 C 1526.164062 111.8125 1528.296875 111.699219 1530.261719 112.417969 L 1531.992188 113.492188 C 1534.90625 114.253906 1538.175781 113.976562 1540.078125 113.332031 C 1542.671875 112.4375 1544.476562 111.09375 1545.980469 109.316406 C 1548.730469 106.054688 1553.847656 107.527344 1558.058594 107.699219 C 1560.109375 107.785156 1560.277344 108.03125 1561.867188 108.890625 C 1564.476562 110.296875 1567.625 110.535156 1570.675781 110.769531 C 1572.285156 110.898438 1577.136719 110.445312 1578.855469 111.183594 C 1580.109375 111.722656 1580.183594 112.984375 1580.78125 113.960938 L 1581.851562 115.253906 C 1582.230469 117.207031 1581.460938 117.28125 1582.4375 118.160156 C 1583.855469 119.441406 1590.066406 118.980469 1591.902344 119.042969 C 1594.933594 119.15625 1594.882812 118.902344 1596.226562 121.039062 C 1597.03125 122.328125 1598.019531 123.367188 1598.101562 124.878906 L 1599.671875 125.78125 C 1601.636719 126.222656 1602.5 125.890625 1603.445312 126.269531 C 1605.183594 126.949219 1605.925781 129.09375 1607.304688 130.183594 L 1612.859375 134.238281 C 1613.84375 134.824219 1615.695312 135.546875 1617.300781 136.390625 L 1620.273438 118.472656 C 1618.53125 117.234375 1615.683594 116.203125 1614.363281 115.4375 L 1608.796875 111.355469 C 1607.417969 110.265625 1606.675781 108.121094 1604.9375 107.441406 L 1603.117188 107.390625 C 1601.152344 106.953125 1600.785156 106.160156 1599.582031 106.066406 C 1599.496094 104.566406 1598.507812 103.527344 1597.703125 102.226562 C 1596.375 100.089844 1596.414062 100.324219 1593.382812 100.226562 C 1591.53125 100.164062 1585.332031 100.628906 1583.914062 99.34375 L 1583.691406 98.390625 C 1583.3125 96.441406 1582.730469 95.933594 1582.246094 95.144531 C 1581.648438 94.167969 1581.570312 92.90625 1580.316406 92.367188 C 1578.617188 91.628906 1573.765625 92.085938 1572.152344 91.953125 C 1569.105469 91.707031 1565.953125 91.46875 1563.34375 90.078125 C 1561.757812 89.21875 1561.589844 88.96875 1559.535156 88.886719 C 1555.324219 88.726562 1550.210938 87.242188 1547.457031 90.5 C 1545.953125 92.28125 1544.152344 93.625 1541.554688 94.515625 C 1539.652344 95.175781 1536.398438 95.441406 1534.242188 94.878906 L 1532.558594 93.910156 C 1529.789062 92.882812 1527.640625 93.011719 1525.472656 92.917969 C 1522.921875 92.804688 1519.675781 92.191406 1517.203125 92.683594 C 1515.789062 92.96875 1514.683594 93.863281 1513.179688 93.988281 C 1511.015625 94.175781 1510.335938 93.617188 1508.238281 94.507812 C 1507.15625 94.964844 1505.507812 96.222656 1504.152344 96.027344 C 1503.128906 95.875 1502.503906 94.707031 1501.480469 94.351562 C 1499.183594 93.558594 1495.835938 93.566406 1493.355469 93.167969 L 1485.996094 92.589844 C 1483.007812 92.65625 1479.980469 93.304688 1477.027344 93.652344 C 1475.03125 93.882812 1474.667969 93.527344 1472.949219 92.832031 C 1470.328125 91.746094 1466.847656 90.453125 1463.96875 89.960938 C 1460.023438 89.28125 1457.722656 90.316406 1454.535156 91.769531 C 1451.089844 93.34375 1446.996094 92.1875 1443.339844 93.84375 C 1440.5625 95.101562 1437.96875 97.132812 1434.996094 98.3125 C 1432.070312 99.46875 1428.566406 99.253906 1425.519531 100.292969 C 1423.40625 101.023438 1423.679688 100.917969 1421.648438 100.265625 C 1415.125 98.171875 1407.238281 98.558594 1400.355469 98.230469 L 1385.109375 97.527344 C 1376.1875 96.914062 1367.359375 95.445312 1358.347656 95.347656 C 1352.898438 95.292969 1347.273438 96.527344 1341.980469 97.527344 C 1337.546875 98.355469 1334.53125 99.207031 1331.332031 101.785156 C 1327.3125 105.019531 1321.867188 103.300781 1316.953125 102.332031 L 1303.128906 99.988281 C 1298.378906 99.5 1293.527344 100.613281 1288.828125 100.992188 C 1282.390625 101.523438 1276.15625 101.136719 1269.730469 100.867188 C 1261.9375 100.558594 1254.539062 100.226562 1247.527344 97.238281 L 1236.824219 93.21875 C 1230.652344 90.980469 1224.367188 88.835938 1217.683594 87.882812 C 1211.476562 87 1204.6875 87.046875 1198.390625 86.84375 C 1196.015625 86.777344 1194.277344 86.574219 1192.28125 85.355469 C 1189.84375 83.863281 1189.082031 83.050781 1185.886719 82.996094 C 1182.3125 82.921875 1183.140625 81.492188 1181.582031 79.332031 C 1180.21875 77.441406 1178.515625 74.742188 1175.832031 74.371094 C 1173.535156 74.0625 1170.0625 74.785156 1167.949219 74.070312 C 1166.460938 73.554688 1166.753906 72.394531 1166.109375 71.300781 C 1165.132812 69.617188 1162.765625 67.488281 1160.492188 67.082031 C 1157 66.445312 1151.320312 69.089844 1149.773438 71.683594 C 1148.460938 73.875 1150.550781 76.828125 1146.605469 77.773438 C 1144.558594 78.261719 1142.378906 77.480469 1140.171875 78.113281 L 1135.949219 79.53125 C 1134.875 80.09375 1134.417969 80.957031 1133.175781 81.285156 C 1131.390625 81.75 1127.921875 81 1126.042969 80.902344 C 1124.238281 80.8125 1121.90625 80.265625 1120.445312 81.042969 C 1118.726562 81.953125 1117.542969 83.910156 1115.765625 84.949219 C 1111.289062 87.585938 1105.902344 88.621094 1100.347656 87.8125 C 1095.703125 87.128906 1090.734375 83.507812 1085.785156 84.597656 C 1082.695312 85.285156 1085.070312 86.492188 1079.597656 86.714844 C 1071.351562 87.054688 1060.773438 84.695312 1054.496094 80.050781 C 1054.605469 81.433594 1051.992188 85.9375 1050.527344 86.273438 C 1048.140625 86.800781 1045.078125 84.625 1042.308594 85.035156 L 1041.101562 85.597656 C 1039.164062 85.832031 1037.683594 85.550781 1036.578125 85.496094 C 1034.046875 85.371094 1029.652344 84.476562 1027.4375 85.503906 C 1024.542969 86.839844 1025.796875 88.296875 1021.917969 88.046875 C 1017.90625 87.789062 1014.105469 88.574219 1010.082031 88.296875 C 1008.6875 88.199219 1007.949219 88.28125 1006.960938 87.5625 L 1006.113281 86.082031 C 1001.382812 84.253906 995.925781 86.539062 992.246094 86.644531 C 988.246094 86.765625 982.03125 86.777344 978.148438 85.738281 L 974.757812 84.921875 C 972.726562 84.753906 970.375 85.007812 968.371094 84.695312 L 960.832031 82.714844 C 958.265625 82.324219 955.589844 81.671875 953.011719 81.410156 L 940.734375 80.070312 C 936.8125 79.773438 933.363281 78.132812 929.640625 77.269531 C 925.875 76.40625 927.214844 76.628906 925.402344 74.8125 C 924.046875 73.460938 923.585938 73.726562 921.765625 73.476562 C 917.621094 72.898438 913.789062 71.628906 909.5625 72.449219 C 905.917969 73.15625 903.425781 73.5625 899.417969 73.242188 C 895.453125 72.929688 891.851562 70.71875 888.300781 69.417969 L 880.515625 65.777344 C 878.042969 64.808594 874.734375 64.394531 871.960938 64.511719 L 867.484375 65.171875 C 865.277344 65.3125 862.8125 64.929688 860.601562 64.816406 C 854.605469 64.507812 849.101562 64.421875 843.3125 65.84375 C 839.605469 66.753906 836.140625 66.601562 832.351562 66.800781 C 828.664062 66.980469 825.222656 68.015625 821.710938 68.867188 L 816.625 69.652344 C 811.375 70.304688 806.851562 70.859375 801.886719 72.578125 C 798.761719 73.65625 796.535156 72.925781 793.472656 72.183594 L 789.652344 72.042969 C 787.359375 72.378906 785.414062 74.160156 783.085938 74.171875 C 780.820312 74.1875 778.757812 71.910156 776.570312 71.390625 C 774.566406 70.917969 772.328125 71.082031 770.230469 70.980469 C 767.015625 70.820312 762.332031 69.742188 759.6875 71.664062 L 758.742188 72.925781 C 756.402344 75.1875 753.574219 74.917969 751.101562 75.117188 L 745.101562 76.15625 C 742.054688 76.714844 738.835938 76.714844 735.757812 77.109375 L 720.789062 78.230469 C 717.4375 78.292969 714.871094 79.1875 711.804688 79.628906 C 708.839844 80.0625 706.003906 81.355469 703.019531 81.554688 C 700.945312 81.703125 697.988281 81.234375 696.199219 80.824219 C 691.226562 79.703125 686.980469 78.296875 681.84375 78.039062 C 678.25 77.859375 674.21875 77.160156 670.6875 77.574219 C 666.507812 78.042969 662.996094 78.238281 658.851562 77.339844 L 654.613281 76.328125 C 652.65625 75.828125 650.605469 75.71875 648.375 75.621094 L 648.027344 75.601562 L 647.796875 76.691406 C 646.023438 85.347656 644.5 93.472656 642.804688 101.578125 " fill-opacity="1" fill-rule="nonzero"/></g></g></g><g clip-path="url(#22e504b4d7)"><g clip-path="url(#edd07c106c)"><g clip-path="url(#b6a2b40523)"><path fill="#ffffff" d="M 656.1875 76.558594 C 656.070312 74.601562 651.039062 75.464844 649.453125 76.183594 C 646.738281 77.417969 646.726562 78.703125 641.515625 77.792969 C 638.433594 77.253906 638.695312 76.296875 635.515625 77.019531 C 633.859375 77.394531 633.390625 78.683594 631.257812 79.015625 L 626.046875 78.914062 C 622.972656 78.78125 619.875 78.632812 616.789062 78.457031 C 612.671875 78.234375 612.03125 78.863281 608.589844 79.0625 C 605.035156 79.269531 603.457031 78.921875 600.171875 79.546875 C 597.402344 80.085938 595.382812 80.253906 592.195312 80.273438 C 591.636719 82.273438 589.378906 82.652344 585.503906 82.667969 C 583.601562 82.671875 581.046875 82.121094 579.191406 82.289062 C 577.082031 82.496094 576.863281 83.308594 575.125 83.605469 C 568.828125 84.6875 557.371094 83.1875 550.324219 82.84375 C 544.269531 82.546875 542.738281 79.441406 536.140625 79.285156 C 531.734375 79.179688 530.738281 80.363281 526.746094 80.703125 C 523.914062 80.945312 520.402344 80.351562 517.484375 80.277344 C 510.539062 80.117188 487.128906 82.582031 486.398438 77.066406 C 483.109375 76.722656 481.542969 75.96875 478.714844 75.523438 C 475.371094 75.003906 471.527344 75.140625 468.363281 74.589844 C 463.207031 73.703125 454.613281 72.882812 449.742188 74.359375 C 447.261719 75.113281 446.625 76.488281 443.5 76.761719 C 440.433594 77.042969 435.324219 76.332031 432.09375 76.171875 C 428.554688 76 425.011719 75.5625 421.6875 76.113281 C 418.808594 76.582031 417.101562 77.6875 414.425781 78.191406 C 412.757812 78.507812 411.457031 78.171875 409.648438 78.636719 L 408.246094 79.269531 C 405.664062 80.164062 402.890625 81.082031 400.523438 81.234375 C 397.289062 81.425781 394.445312 80.863281 391.40625 81.320312 C 388.695312 81.71875 385.300781 82.890625 382.546875 83.09375 C 378.457031 83.398438 376.425781 82.746094 372.769531 82.09375 C 368.625 81.371094 367.125 82.113281 363.515625 82.414062 C 357.890625 82.875 347.0625 82.453125 343.105469 84.199219 C 341.1875 85.050781 342.425781 85.746094 339.5 86.054688 C 337.835938 86.226562 336.144531 85.519531 334.421875 85.785156 C 330.984375 86.324219 330.960938 88.046875 325.796875 87.273438 C 322.234375 86.734375 321.785156 85.554688 318.699219 84.585938 C 314.292969 83.195312 311.800781 84.066406 308.082031 84.273438 C 300.179688 84.699219 295.988281 82.539062 289.210938 81.636719 C 282.609375 80.75 275.296875 81.929688 269.65625 79.800781 C 266.132812 78.472656 265.484375 77.742188 260.539062 77.425781 L 250.246094 76.9375 C 243.566406 76.613281 234.652344 75.574219 228.589844 76.359375 C 226.058594 76.6875 224.035156 77.394531 221.367188 77.476562 C 218.1875 77.585938 214.238281 77.097656 211.007812 76.9375 C 202.128906 76.488281 195 77.90625 186.148438 77.632812 C 179.980469 77.441406 174.769531 79.957031 168.855469 80.839844 C 166.660156 81.167969 167.066406 81.527344 164.171875 81.367188 C 162.046875 81.265625 161.089844 80.535156 159.660156 80.347656 C 156.769531 79.957031 151.003906 80.53125 147.695312 80.746094 C 145.78125 80.863281 144.558594 81.308594 142.46875 81.28125 C 139.695312 81.25 138.855469 80.519531 136.949219 80.230469 L 125.546875 79.257812 C 124.839844 79.152344 124.265625 78.53125 123.199219 78.359375 C 120.867188 77.988281 117.316406 78.121094 114.855469 78.003906 C 111.011719 77.816406 106.484375 77.933594 102.875 77.257812 L 102.503906 76.203125 C 98.71875 75.378906 98.65625 74.277344 96.210938 73.484375 C 93.898438 72.734375 90.9375 72.804688 88.484375 71.96875 L 82.53125 69.546875 C 81.804688 69.363281 81.074219 69.179688 80.347656 68.984375 L 78.316406 68.304688 C 78.382812 67.390625 78.289062 67.132812 78.195312 66.875 L 74.515625 66.527344 C 68.566406 65.699219 62.386719 64.980469 56.203125 64.671875 C 55.894531 64.660156 52.460938 64.320312 51.75 64.402344 C 49.359375 64.667969 49.890625 65.578125 47.746094 66.015625 C 45.867188 66.414062 45.03125 65.800781 43.398438 65.929688 C 41.570312 66.085938 41.269531 66.660156 39.417969 66.769531 C 35.976562 66.984375 31.496094 66.246094 27.980469 66.164062 C 21.257812 65.996094 13.777344 67.234375 6.875 67.898438 L -2.160156 69 C -6.742188 69.550781 -8.46875 68.929688 -12.90625 68.207031 C -18.09375 67.371094 -20.378906 67.898438 -24.875 68.632812 C -28.566406 69.21875 -31.503906 69.015625 -35.417969 68.835938 C -45.84375 68.363281 -55.671875 65.140625 -65.929688 65.398438 C -70.28125 65.503906 -72.652344 67.160156 -76.4375 67.621094 C -79.484375 68.007812 -83.601562 67.460938 -86.746094 67.292969 C -95.296875 66.8125 -101.394531 63.894531 -110.203125 63.320312 C -114.039062 63.078125 -114.21875 62.636719 -117.179688 61.753906 C -120.613281 60.742188 -123.714844 60.742188 -127.527344 60.558594 L -137.371094 60.300781 C -138.578125 60.367188 -140.265625 60.769531 -141.953125 60.824219 C -144.972656 60.914062 -145.625 60.214844 -147.917969 61.628906 C -149.15625 62.410156 -150.644531 65.929688 -150.832031 67.054688 C -151.234375 69.386719 -149.855469 69.523438 -154.773438 69.738281 C -160.792969 70 -167.894531 68.335938 -173.824219 68.753906 L -182.464844 70.050781 C -189.585938 70.722656 -195.570312 71.574219 -202.742188 71.203125 C -206.148438 71.027344 -210.753906 71.195312 -213.976562 70.613281 C -219.039062 69.691406 -221.664062 68.460938 -227.234375 68.117188 C -232.773438 67.777344 -237.035156 68.039062 -241.921875 69.058594 C -245.335938 69.773438 -247.226562 70.640625 -250.21875 71.570312 C -255.332031 73.128906 -264.738281 72.046875 -270.890625 71.710938 C -275.546875 71.449219 -279.050781 71.734375 -283.328125 72.285156 C -285.839844 72.613281 -286.941406 72.792969 -289.609375 72.726562 C -291.359375 72.683594 -294.433594 72.085938 -295.933594 72.332031 C -300.855469 73.101562 -301.375 78.199219 -308.664062 78.449219 C -307.980469 78.480469 -315.589844 79.066406 -314.90625 79.101562 L -316.414062 97.898438 C -317.097656 97.867188 -309.484375 97.28125 -310.167969 97.246094 C -302.882812 97.011719 -302.363281 91.914062 -297.4375 91.128906 C -295.941406 90.898438 -292.863281 91.484375 -291.113281 91.523438 C -288.429688 91.589844 -287.347656 91.425781 -284.832031 91.097656 C -280.558594 90.53125 -277.039062 90.265625 -272.394531 90.507812 C -266.242188 90.84375 -256.835938 91.925781 -251.726562 90.367188 C -248.734375 89.453125 -246.828125 88.574219 -243.414062 87.859375 C -238.527344 86.835938 -234.261719 86.578125 -228.722656 86.917969 C -223.167969 87.257812 -220.53125 88.488281 -215.46875 89.414062 C -212.246094 89.996094 -207.640625 89.828125 -204.234375 90.003906 C -197.046875 90.371094 -191.078125 89.523438 -183.953125 88.847656 L -175.3125 87.550781 C -169.382812 87.136719 -162.28125 88.800781 -156.265625 88.539062 C -151.347656 88.324219 -152.722656 88.183594 -152.324219 85.851562 C -152.136719 84.746094 -150.660156 81.207031 -149.40625 80.429688 C -147.128906 79.011719 -146.464844 79.730469 -143.457031 79.636719 L -138.878906 79.113281 C -135.632812 78.953125 -132.382812 79.214844 -129.035156 79.371094 C -125.21875 79.554688 -122.121094 79.554688 -118.6875 80.566406 C -115.726562 81.449219 -115.546875 81.875 -111.710938 82.132812 C -102.902344 82.707031 -96.804688 85.625 -88.25 86.105469 C -85.125 86.285156 -80.988281 86.816406 -77.945312 86.433594 C -74.160156 85.972656 -71.789062 84.316406 -67.4375 84.210938 C -57.179688 83.949219 -47.351562 87.175781 -36.925781 87.648438 C -33.007812 87.828125 -30.074219 88.03125 -26.382812 87.445312 C -21.886719 86.722656 -19.601562 86.183594 -14.414062 87.03125 C -9.976562 87.738281 -8.25 88.378906 -3.667969 87.828125 L 5.367188 86.726562 C 12.269531 86.0625 19.734375 84.820312 26.472656 84.988281 C 29.988281 85.070312 34.46875 85.8125 37.910156 85.597656 C 39.761719 85.484375 40.0625 84.914062 41.890625 84.757812 C 43.527344 84.613281 44.363281 85.226562 46.238281 84.839844 C 48.382812 84.390625 47.851562 83.480469 50.246094 83.214844 C 50.96875 83.132812 54.390625 83.472656 54.695312 83.484375 L 73.007812 85.339844 C 74.320312 85.226562 75.539062 85.335938 76.691406 85.6875 L 76.890625 86.203125 C 76.824219 87.117188 77.441406 87.554688 78.839844 87.78125 L 80.300781 88.148438 C 83.191406 89.140625 84.835938 90.03125 86.980469 90.753906 C 89.433594 91.589844 92.394531 91.519531 94.707031 92.269531 C 97.152344 93.058594 97.214844 94.160156 100.738281 94.464844 L 101.199219 95.515625 C 104.964844 96.71875 109.492188 96.613281 113.335938 96.785156 C 115.796875 96.902344 119.332031 96.753906 121.683594 97.144531 L 123.320312 97.933594 C 127.765625 98.597656 131.695312 98.441406 135.417969 99.011719 C 137.320312 99.296875 138.160156 100.03125 140.9375 100.0625 C 143.023438 100.089844 144.25 99.644531 146.160156 99.527344 C 149.46875 99.3125 155.238281 98.734375 158.128906 99.128906 C 159.542969 99.328125 160.515625 100.046875 162.640625 100.148438 C 165.535156 100.292969 165.128906 99.949219 167.324219 99.621094 C 173.238281 98.722656 178.449219 96.210938 184.617188 96.414062 C 193.464844 96.699219 200.59375 95.28125 209.472656 95.71875 C 212.707031 95.878906 216.652344 96.363281 219.835938 96.257812 C 222.519531 96.164062 224.527344 95.46875 227.054688 95.140625 C 233.136719 94.355469 242.035156 95.394531 248.714844 95.71875 L 259.007812 96.207031 C 263.949219 96.523438 264.601562 97.253906 268.121094 98.578125 C 273.761719 100.710938 281.078125 99.527344 287.679688 100.417969 C 294.453125 101.335938 298.660156 103.484375 306.550781 103.054688 C 310.265625 102.847656 312.757812 101.992188 317.148438 103.382812 C 320.234375 104.347656 320.683594 105.542969 324.246094 106.066406 C 329.410156 106.839844 329.433594 105.132812 332.875 104.582031 C 334.59375 104.3125 336.285156 105.019531 337.953125 104.847656 C 340.890625 104.558594 339.636719 103.84375 341.554688 102.996094 C 345.515625 101.246094 356.339844 101.667969 361.964844 101.210938 C 365.574219 100.921875 367.074219 100.164062 371.222656 100.890625 C 374.875 101.539062 376.921875 102.179688 381 101.886719 C 383.765625 101.683594 387.148438 100.511719 389.859375 100.113281 C 392.894531 99.671875 395.753906 100.222656 398.976562 100.03125 C 401.339844 99.890625 404.128906 98.960938 406 98.308594 L 407.363281 97.628906 C 409.90625 96.980469 411.207031 97.316406 412.859375 96.996094 C 415.550781 96.496094 417.246094 95.390625 420.125 94.917969 C 423.449219 94.371094 426.992188 94.808594 430.527344 94.980469 C 433.757812 95.140625 438.871094 95.863281 441.9375 95.570312 C 445.0625 95.28125 445.699219 93.90625 448.175781 93.164062 C 453.046875 91.6875 461.640625 92.523438 466.796875 93.398438 C 469.980469 93.945312 473.824219 93.796875 477.167969 94.316406 C 479.992188 94.761719 481.5625 95.503906 484.851562 95.859375 C 485.566406 101.375 508.992188 98.914062 515.9375 99.070312 C 518.855469 99.144531 522.367188 99.738281 525.195312 99.496094 C 529.203125 99.15625 530.1875 97.972656 534.59375 98.078125 C 541.1875 98.234375 542.722656 101.339844 548.777344 101.636719 C 555.835938 101.984375 567.292969 103.484375 573.578125 102.398438 C 575.3125 102.101562 575.519531 101.285156 577.644531 101.082031 C 579.5 100.914062 582.054688 101.464844 583.953125 101.460938 C 587.828125 101.445312 590.085938 101.066406 590.648438 99.070312 C 593.820312 99.046875 595.839844 98.878906 598.621094 98.339844 C 601.910156 97.703125 603.488281 98.046875 607.042969 97.84375 C 610.496094 97.644531 611.125 97.011719 615.242188 97.238281 L 624.5 97.691406 C 626.203125 97.773438 628.035156 98.054688 629.710938 97.796875 C 631.84375 97.476562 632.3125 96.175781 633.96875 95.796875 C 637.148438 95.074219 636.886719 96.03125 639.96875 96.574219 C 645.175781 97.480469 645.191406 96.195312 647.90625 94.964844 C 649.488281 94.242188 654.523438 93.382812 654.640625 95.335938 C 654.730469 94.191406 656.761719 93.539062 657.40625 92.53125 L 657.886719 92.558594 C 657.886719 92.558594 656.234375 75.378906 656.144531 76.539062 " fill-opacity="1" fill-rule="nonzero"/></g></g></g></svg>